<svg width="235" height="235" viewBox="0 0 235 235" fill="none" xmlns="http://www.w3.org/2000/svg">
<path d="M205.723 97.917H177.816C180.46 87.9295 187.706 73.3399 208.073 68.2482L215.514 66.3878V39.167H205.723C178.502 39.167 157.646 46.7066 143.937 61.5899C125.431 81.6628 127.291 107.415 127.389 107.709V176.25C127.389 187.021 136.202 195.834 146.973 195.834H205.723C216.493 195.834 225.306 187.021 225.306 176.25V117.5C225.306 106.729 216.493 97.917 205.723 97.917ZM88.2226 97.917H60.3164C62.9601 87.9295 70.2059 73.3399 90.5726 68.2482L98.0143 66.3878V39.167H88.2226C61.0018 39.167 40.1455 46.7066 26.4372 61.5899C7.93095 81.6628 9.79136 107.415 9.88928 107.709V176.25C9.88928 187.021 18.7018 195.834 29.4726 195.834H88.2226C98.9934 195.834 107.806 187.021 107.806 176.25V117.5C107.806 106.729 98.9934 97.917 88.2226 97.917Z" fill="#5FBDAE"/>
</svg>
